<svg width="20" height="21" viewBox="0 0 20 21" fill="none" xmlns="http://www.w3.org/2000/svg">
<path d="M4.99968 18.8334C4.54134 18.8334 4.14884 18.6701 3.82218 18.3434C3.49551 18.0168 3.33245 17.6245 3.33301 17.1667V7.85425C3.33301 7.63203 3.37468 7.42036 3.45801 7.21925C3.54134 7.01814 3.6594 6.84092 3.81218 6.68758L7.85384 2.64591C8.00662 2.49314 8.18384 2.37508 8.38551 2.29175C8.58718 2.20841 8.79884 2.16675 9.02051 2.16675H14.9997C15.458 2.16675 15.8505 2.33008 16.1772 2.65675C16.5038 2.98341 16.6669 3.37564 16.6663 3.83341V17.1667C16.6663 17.6251 16.503 18.0176 16.1763 18.3442C15.8497 18.6709 15.4575 18.834 14.9997 18.8334H4.99968ZM9.99968 14.3126C10.1108 14.3126 10.215 14.2951 10.3122 14.2601C10.4094 14.2251 10.4997 14.1662 10.583 14.0834L12.7705 11.8959C12.9233 11.7431 12.9997 11.5556 12.9997 11.3334C12.9997 11.1112 12.9163 10.9167 12.7497 10.7501C12.5969 10.5973 12.4025 10.5173 12.1663 10.5101C11.9302 10.5029 11.7358 10.5829 11.583 10.7501L10.833 11.4584V8.83342C10.833 8.5973 10.753 8.39925 10.593 8.23925C10.433 8.07925 10.2352 7.99953 9.99968 8.00008C9.76356 8.00008 9.56551 8.08008 9.40551 8.24008C9.24551 8.40008 9.16579 8.59786 9.16634 8.83342V11.4584L8.41634 10.7292C8.24968 10.5765 8.05523 10.5001 7.83301 10.5001C7.61079 10.5001 7.41634 10.5834 7.24968 10.7501C7.0969 10.9029 7.02051 11.0973 7.02051 11.3334C7.02051 11.5695 7.0969 11.764 7.24968 11.9167L9.41634 14.0834C9.49968 14.1667 9.58995 14.2259 9.68718 14.2609C9.7844 14.2959 9.88856 14.3131 9.99968 14.3126Z" fill="#00B7FF"/>
</svg>
