<svg width="420" height="815" viewBox="0 0 420 815" fill="none" xmlns="http://www.w3.org/2000/svg">
<g clip-path="url(#clip0_90_950)">
<path opacity="0.15" d="M-510 37.5001L930 37.5M-510 237.5L930 237.5M-510 437.5L930 437.5M-510 637.5L930 637.5M-510 837.501L930 837.5M-510 1037.5L930 1037.5M-510 137.5L930 137.5M-510 337.5L930 337.5M-510 537.5L930 537.5M-510 737.501L930 737.5M-510 937.501L930 937.501M-510 1137.5L930 1137.5M610.501 -131L610.501 1309M910.5 -131L910.501 1309M410.5 -131L410.501 1309M710.5 -131L710.5 1309M210.5 -131L210.501 1309M10.5005 -131L10.5005 1309M-189.5 -131L-189.499 1309M-389.5 -131L-389.5 1309M510.5 -131L510.501 1309M810.5 -131L810.5 1309M310.5 -131L310.501 1309M110.5 -131L110.501 1309M-89.4995 -131L-89.4995 1309M-289.5 -131L-289.5 1309M-489.5 -131L-489.5 1309" stroke="black"/>
</g>
<g clip-path="url(#clip1_90_950)">
<g opacity="0.2">
<path d="M0 -20H1440V815H0V-20Z" fill="url(#paint0_linear_90_950)"/>
<path d="M0 -20H1440V815H0V-20Z" fill="url(#paint1_linear_90_950)"/>
</g>
</g>
<defs>
<linearGradient id="paint0_linear_90_950" x1="451" y1="328.399" x2="114.059" y2="764.43" gradientUnits="userSpaceOnUse">
<stop stop-color="#FF9900" stop-opacity="0"/>
<stop offset="1" stop-color="#FF9900"/>
</linearGradient>
<linearGradient id="paint1_linear_90_950" x1="949" y1="284.985" x2="1143.7" y2="776.357" gradientUnits="userSpaceOnUse">
<stop stop-color="#00F0FF" stop-opacity="0"/>
<stop offset="1" stop-color="#00B2FF"/>
</linearGradient>
<clipPath id="clip0_90_950">
<rect width="1440" height="946" fill="white" transform="translate(-510 -131)"/>
</clipPath>
<clipPath id="clip1_90_950">
<rect width="420" height="835" fill="white" transform="translate(0 -20)"/>
</clipPath>
</defs>
</svg>
