<svg width="20" height="16" viewBox="0 0 20 16" fill="none" xmlns="http://www.w3.org/2000/svg">
<path d="M4.03 8.0301L6.03 11.5001L3.5 14.6801L0 8.6201L4.03 8.0301ZM15 14.0001V11.2901C15.88 10.9001 16.5 10.0301 16.5 9.0001C16.5 8.43011 16.3 7.90011 15.97 7.50011L17.94 6.35011C18.95 5.76011 19.3 4.47011 18.71 3.46011L17.33 1.06011C17.0486 0.575114 16.587 0.220983 16.0456 0.0748794C15.5043 -0.0712239 14.9272 0.00254303 14.44 0.280105L6.31 5.00011C5.36 5.53011 5.03 6.75011 5.58 7.71011L7.08 10.3101C7.63 11.2601 8.86 11.5901 9.81 11.0401L11.69 9.9601C11.94 10.5501 12.41 11.0301 13 11.2901V14.0001C13 15.1001 13.9 16.0001 15 16.0001H20V14.0001H15Z" fill="#444444"/>
</svg>
