<svg width="17" height="21" viewBox="0 0 17 21" fill="none" xmlns="http://www.w3.org/2000/svg">
<path d="M2.7876 21C2.2376 21 1.7666 20.804 1.3746 20.412C0.982599 20.02 0.786933 19.5493 0.787599 19V9C0.787599 8.45 0.983599 7.979 1.3756 7.587C1.7676 7.195 2.23827 6.99933 2.7876 7H3.7876V5C3.7876 3.61667 4.27527 2.43733 5.2506 1.462C6.22593 0.486667 7.40493 -0.000665984 8.7876 6.8306e-07C10.1709 6.8306e-07 11.3503 0.487667 12.3256 1.463C13.3009 2.43833 13.7883 3.61733 13.7876 5V7H14.7876C15.3376 7 15.8086 7.196 16.2006 7.588C16.5926 7.98 16.7883 8.45067 16.7876 9V19C16.7876 19.55 16.5916 20.021 16.1996 20.413C15.8076 20.805 15.3369 21.0007 14.7876 21H2.7876ZM8.7876 16C9.3376 16 9.8086 15.804 10.2006 15.412C10.5926 15.02 10.7883 14.5493 10.7876 14C10.7876 13.45 10.5916 12.979 10.1996 12.587C9.8076 12.195 9.33693 11.9993 8.7876 12C8.2376 12 7.7666 12.196 7.3746 12.588C6.9826 12.98 6.78693 13.4507 6.7876 14C6.7876 14.55 6.9836 15.021 7.3756 15.413C7.7676 15.805 8.23827 16.0007 8.7876 16ZM5.7876 7H11.7876V5C11.7876 4.16667 11.4959 3.45833 10.9126 2.875C10.3293 2.29167 9.62093 2 8.7876 2C7.95427 2 7.24593 2.29167 6.6626 2.875C6.07927 3.45833 5.7876 4.16667 5.7876 5V7Z" fill="#444444"/>
</svg>
