<svg width="19" height="19" viewBox="0 0 19 19" fill="none" xmlns="http://www.w3.org/2000/svg">
<path d="M17.9998 14.9997C17.7165 14.9997 17.4788 14.9037 17.2868 14.7117C17.0948 14.5197 16.9991 14.2824 16.9998 13.9997V7.99969C16.9998 7.71636 17.0958 7.47869 17.2878 7.28669C17.4798 7.09469 17.7171 6.99903 17.9998 6.99969C18.2831 6.99969 18.5208 7.09569 18.7128 7.28769C18.9048 7.47969 19.0005 7.71703 18.9998 7.99969V13.9997C18.9998 14.283 18.9038 14.5207 18.7118 14.7127C18.5198 14.9047 18.2825 15.0004 17.9998 14.9997ZM17.9998 18.9997C17.7165 18.9997 17.4788 18.9037 17.2868 18.7117C17.0948 18.5197 16.9991 18.2824 16.9998 17.9997C16.9998 17.7164 17.0958 17.4787 17.2878 17.2867C17.4798 17.0947 17.7171 16.999 17.9998 16.9997C18.2831 16.9997 18.5208 17.0957 18.7128 17.2877C18.9048 17.4797 19.0005 17.717 18.9998 17.9997C18.9998 18.283 18.9038 18.5207 18.7118 18.7127C18.5198 18.9047 18.2825 19.0004 17.9998 18.9997ZM1.4248 18.9997C0.974798 18.9997 0.662464 18.7954 0.487798 18.3867C0.313131 17.978 0.383798 17.6157 0.699798 17.2997L17.2998 0.699694C17.6165 0.383028 17.9791 0.312028 18.3878 0.486694C18.7965 0.661361 19.0005 0.974028 18.9998 1.42469V4.99969H16.9998C16.4498 4.99969 15.9788 5.19569 15.5868 5.58769C15.1948 5.97969 14.9991 6.45036 14.9998 6.99969V18.9997H1.4248Z" fill="#444444"/>
</svg>
