<svg width="17" height="20" viewBox="0 0 17 20" fill="none" xmlns="http://www.w3.org/2000/svg">
<path d="M8.85019 17C9.05019 16.9833 9.2212 16.904 9.3632 16.762C9.5052 16.62 9.57586 16.4493 9.5752 16.25C9.5752 16.0167 9.50019 15.829 9.35019 15.687C9.2002 15.545 9.00853 15.4827 8.7752 15.5C8.09186 15.55 7.36686 15.3623 6.6002 14.937C5.83353 14.5117 5.3502 13.741 5.1502 12.625C5.11686 12.4417 5.02953 12.2917 4.8882 12.175C4.74686 12.0583 4.5842 12 4.4002 12C4.16686 12 3.9752 12.0877 3.8252 12.263C3.6752 12.4383 3.6252 12.6423 3.6752 12.875C3.95853 14.3917 4.6252 15.475 5.6752 16.125C6.7252 16.775 7.78353 17.0667 8.85019 17ZM8.5752 20C6.29186 20 4.38753 19.2167 2.8622 17.65C1.33686 16.0833 0.574529 14.1333 0.575196 11.8C0.575196 10.1333 1.23786 8.32067 2.5632 6.362C3.88853 4.40333 5.89253 2.28267 8.5752 0C11.2585 2.28333 13.2629 4.40433 14.5882 6.363C15.9135 8.32167 16.5759 10.134 16.5752 11.8C16.5752 14.1333 15.8125 16.0833 14.2872 17.65C12.7619 19.2167 10.8579 20 8.5752 20Z" fill="#444444"/>
</svg>
