<svg width="17" height="18" viewBox="0 0 17 18" fill="none" xmlns="http://www.w3.org/2000/svg">
<path d="M0.787598 11C0.787598 9.25 1.20426 7.69167 2.0376 6.325C2.87093 4.95833 3.7876 3.80833 4.7876 2.875C5.7876 1.94167 6.70426 1.229 7.5376 0.737L8.7876 0V3.3C8.7876 3.91667 8.99593 4.404 9.4126 4.762C9.82926 5.12 10.2959 5.29933 10.8126 5.3C11.0959 5.3 11.3669 5.24167 11.6256 5.125C11.8843 5.00833 12.1216 4.81667 12.3376 4.55L12.7876 4C13.9876 4.7 14.9543 5.67067 15.6876 6.912C16.4209 8.15333 16.7876 9.516 16.7876 11C16.7876 12.4667 16.4293 13.8043 15.7126 15.013C14.9959 16.2217 14.0543 17.1753 12.8876 17.874C13.1709 17.474 13.3919 17.0363 13.5506 16.561C13.7093 16.0857 13.7883 15.582 13.7876 15.05C13.7876 14.3833 13.6626 13.754 13.4126 13.162C13.1626 12.57 12.8043 12.041 12.3376 11.575L8.7876 8.1L5.2626 11.575C4.77926 12.0583 4.4126 12.5917 4.1626 13.175C3.9126 13.7583 3.7876 14.3833 3.7876 15.05C3.7876 15.5833 3.86693 16.0877 4.0256 16.563C4.18426 17.0383 4.40493 17.4757 4.6876 17.875C3.52093 17.175 2.57926 16.2207 1.8626 15.012C1.14593 13.8033 0.787598 12.466 0.787598 11ZM8.7876 10.9L10.9126 12.975C11.1959 13.2583 11.4126 13.575 11.5626 13.925C11.7126 14.275 11.7876 14.65 11.7876 15.05C11.7876 15.8667 11.4959 16.5623 10.9126 17.137C10.3293 17.7117 9.62093 17.9993 8.7876 18C7.95426 18 7.24593 17.7123 6.6626 17.137C6.07926 16.5617 5.7876 15.866 5.7876 15.05C5.7876 14.6667 5.8626 14.2957 6.0126 13.937C6.1626 13.5783 6.37926 13.2577 6.6626 12.975L8.7876 10.9Z" fill="#444444"/>
</svg>
