<svg width="590" height="347" viewBox="0 0 590 347" fill="none" xmlns="http://www.w3.org/2000/svg">
<path d="M145.621 199.312L223.104 244.047L205.283 254.336L142.411 218.037L107.432 238.232L170.305 274.531L152.483 284.82L75 240.085L145.621 199.312Z" fill="#212121" fill-opacity="0.1"/>
<path d="M226.704 152.499L304.188 197.234L286.477 207.459L265.889 195.572L249.506 205.03L256.369 224.842L237.441 235.77L230.246 212.955C222.867 214.744 215.635 215.213 208.551 214.361C201.393 213.466 194.788 211.272 188.737 207.778C182.76 204.327 178.996 200.578 177.447 196.531C175.823 192.441 176.377 188.287 179.107 184.069C181.764 179.808 186.487 175.718 193.276 171.799L226.704 152.499ZM208.329 179.979C203.238 182.918 200.507 185.858 200.138 188.798C199.843 191.695 202.02 194.486 206.669 197.17C211.171 199.769 215.93 201.025 220.948 200.94C225.966 200.855 230.984 199.364 236.002 196.467L251.72 187.392L223.605 171.159L208.329 179.979Z" fill="#212121" fill-opacity="0.1"/>
<path d="M319.947 115.536L295.152 129.851L358.025 166.151L340.314 176.376L277.442 140.077L252.758 154.328L238.147 145.892L305.336 107.1L319.947 115.536Z" fill="#212121" fill-opacity="0.1"/>
<path d="M379.578 93.634C389.024 88.1806 398.359 85.2195 407.583 84.7509C416.881 84.2396 425.662 86.3699 433.927 91.1416C442.709 96.2116 446.62 101.708 445.661 107.63C444.701 113.467 439.167 119.303 429.057 125.14L394.079 145.335L316.595 100.6L334.416 90.3108L359.875 105.009L379.578 93.634ZM414.778 118.047C419.427 115.362 421.899 112.614 422.194 109.803C422.563 106.948 420.571 104.264 416.217 101.75C408.173 97.1063 399.207 97.6388 389.319 103.348L373.158 112.678L398.617 127.377L414.778 118.047Z" fill="#212121" fill-opacity="0.1"/>
<path d="M224.046 256.874L301.529 301.609L283.819 311.834L220.947 275.535L194.381 290.873L209.988 300.523C220.614 307.084 228.658 312.75 234.119 317.522C239.506 322.251 242.384 326.64 242.753 330.687C243.122 334.649 240.354 338.335 234.451 341.743C232.016 343.149 228.658 344.619 224.378 346.153L210.32 336.758C211.575 336.375 212.792 335.842 213.973 335.161C218.253 332.689 218.733 329.515 215.412 325.638C212.018 321.719 205.155 316.521 194.824 310.045L164.494 291.256L224.046 256.874Z" fill="#212121" fill-opacity="0.1"/>
<path d="M366.486 247.491L380.875 255.799L320.881 290.436L243.398 245.701L301.953 211.894L316.343 220.202L275.609 243.72L292.434 253.434L328.408 232.664L342.355 240.717L306.381 261.486L324.313 271.839L366.486 247.491Z" fill="#212121" fill-opacity="0.1"/>
<path d="M391.707 176.947L366.912 191.262L429.784 227.561L412.074 237.786L349.202 201.487L324.518 215.738L309.906 207.303L377.096 168.511L391.707 176.947Z" fill="#212121" fill-opacity="0.1"/>
<path d="M145.621 145.312L223.104 190.047L205.283 200.336L142.411 164.037L107.432 184.232L170.305 220.531L152.483 230.82L75 186.085L145.621 145.312Z" fill="#2A2A2A"/>
<path d="M226.704 98.4986L304.188 143.234L286.477 153.459L265.889 141.572L249.506 151.03L256.369 170.842L237.441 181.77L230.246 158.955C222.867 160.744 215.635 161.213 208.551 160.361C201.393 159.466 194.788 157.272 188.737 153.778C182.76 150.327 178.996 146.578 177.447 142.531C175.823 138.441 176.377 134.287 179.107 130.069C181.764 125.808 186.487 121.718 193.276 117.799L226.704 98.4986ZM208.329 125.979C203.238 128.918 200.507 131.858 200.138 134.798C199.843 137.695 202.02 140.486 206.669 143.17C211.171 145.769 215.93 147.025 220.948 146.94C225.966 146.855 230.984 145.364 236.002 142.467L251.72 133.392L223.605 117.159L208.329 125.979Z" fill="#2A2A2A"/>
<path d="M319.947 61.5362L295.152 75.8514L358.025 112.151L340.314 122.376L277.442 86.0766L252.758 100.328L238.147 91.8922L305.336 53.1004L319.947 61.5362Z" fill="#2A2A2A"/>
<path d="M379.578 39.634C389.024 34.1806 398.359 31.2195 407.583 30.7509C416.881 30.2396 425.662 32.3699 433.927 37.1416C442.709 42.2116 446.62 47.7076 445.661 53.6297C444.701 59.4665 439.167 65.3034 429.057 71.1403L394.079 91.335L316.595 46.5999L334.416 36.3108L359.875 51.0095L379.578 39.634ZM414.778 64.0466C419.427 61.3625 421.899 58.6144 422.194 55.8025C422.563 52.948 420.571 50.2639 416.217 47.7502C408.173 43.1063 399.207 43.6388 389.319 49.3479L373.158 58.6784L398.617 73.377L414.778 64.0466Z" fill="#2A2A2A"/>
<path d="M224.046 202.874L301.529 247.609L283.819 257.834L220.947 221.535L194.381 236.873L209.988 246.523C220.614 253.084 228.658 258.75 234.119 263.522C239.506 268.251 242.384 272.64 242.753 276.687C243.122 280.649 240.354 284.335 234.451 287.743C232.016 289.149 228.658 290.619 224.378 292.153L210.32 282.758C211.575 282.375 212.792 281.842 213.973 281.161C218.253 278.689 218.733 275.515 215.412 271.638C212.018 267.719 205.155 262.521 194.824 256.045L164.494 237.256L224.046 202.874Z" fill="#2A2A2A"/>
<path d="M366.486 193.491L380.875 201.799L320.881 236.436L243.398 191.701L301.953 157.894L316.343 166.202L275.609 189.72L292.434 199.434L328.408 178.664L342.355 186.717L306.381 207.486L324.313 217.839L366.486 193.491Z" fill="#2A2A2A"/>
<path d="M391.707 122.947L366.912 137.262L429.784 173.561L412.074 183.786L349.202 147.487L324.518 161.738L309.906 153.303L377.096 114.511L391.707 122.947Z" fill="#2A2A2A"/>
<circle cx="235.217" cy="235.217" r="234.717" transform="matrix(0.866025 -0.5 0.866025 0.5 -106 169.217)" stroke="#2A2A2A" stroke-dasharray="5 5"/>
<circle cx="11" cy="11" r="11" transform="matrix(0.866025 -0.5 0.866025 0.5 -5 163)" fill="#2A2A2A"/>
<circle cx="11" cy="11" r="11" transform="matrix(0.866025 -0.5 0.866025 0.5 451 304)" fill="#2A2A2A"/>
<circle cx="11" cy="11" r="11" transform="matrix(0.866025 -0.5 0.866025 0.5 198 8)" fill="#2A2A2A"/>
</svg>
