<svg width="420" height="637" viewBox="0 0 420 637" fill="none" xmlns="http://www.w3.org/2000/svg">
<g clip-path="url(#clip0_11_973)">
<path opacity="0.15" d="M-510 37.5001L930 37.5M-510 237.5L930 237.5M-510 437.5L930 437.5M-510 637.5L930 637.5M-510 837.501L930 837.5M-510 1037.5L930 1037.5M-510 137.5L930 137.5M-510 337.5L930 337.5M-510 537.5L930 537.5M-510 737.501L930 737.5M-510 937.501L930 937.501M-510 1137.5L930 1137.5M610.501 -131L610.501 1309M910.5 -131L910.501 1309M410.5 -131L410.501 1309M710.5 -131L710.5 1309M210.5 -131L210.501 1309M10.5005 -131L10.5005 1309M-189.5 -131L-189.499 1309M-389.5 -131L-389.5 1309M510.5 -131L510.501 1309M810.5 -131L810.5 1309M310.5 -131L310.501 1309M110.5 -131L110.501 1309M-89.4995 -131L-89.4995 1309M-289.5 -131L-289.5 1309M-489.5 -131L-489.5 1309" stroke="black"/>
</g>
<g clip-path="url(#clip1_11_973)">
<g opacity="0.2">
<path d="M0 60H1440V916H0V60Z" fill="url(#paint0_linear_11_973)"/>
<path d="M0 60H1440V916H0V60Z" fill="url(#paint1_linear_11_973)"/>
</g>
</g>
<defs>
<linearGradient id="paint0_linear_11_973" x1="451" y1="417.161" x2="103.514" y2="855.806" gradientUnits="userSpaceOnUse">
<stop stop-color="#FF9900" stop-opacity="0"/>
<stop offset="1" stop-color="#FF9900"/>
</linearGradient>
<linearGradient id="paint1_linear_11_973" x1="949" y1="372.655" x2="1152.21" y2="872.928" gradientUnits="userSpaceOnUse">
<stop stop-color="#00F0FF" stop-opacity="0"/>
<stop offset="1" stop-color="#00B2FF"/>
</linearGradient>
<clipPath id="clip0_11_973">
<rect width="1440" height="768" fill="white" transform="translate(-510 -131)"/>
</clipPath>
<clipPath id="clip1_11_973">
<rect width="420" height="657" fill="white" transform="translate(0 -20)"/>
</clipPath>
</defs>
</svg>
