<svg width="1440" height="936" fill="none" xmlns="http://www.w3.org/2000/svg"><path opacity=".15" d="M0 57.5h1440M0 257.5h1440M0 457.5h1440M0 657.5h1440M0 857.501l1440-.001M0 1057.5h1440M0 157.5h1440M0 357.5h1440M0 557.5h1440M0 757.501l1440-.001M0 957.501h1440M0 1157.5h1440M1120.5-111v1440m300-1440v1440m-500-1440l.001 1440M1220.5-111v1440m-500-1440l.001 1440M520.5-111l.001 1440M320.5-111l.001 1440M120.5-111v1440m900-1440v1440m300-1440v1440m-500-1440l.001 1440M620.5-111l.001 1440M420.5-111l.001 1440M220.5-111v1440M20.5-111v1440" stroke="#2A2A2A"/><g opacity=".2"><path d="M0 0h1440v936H0V0z" fill="url(#paint0_linear_3_911)"/><path d="M0 0h1440v936H0V0z" fill="url(#paint1_linear_3_911)"/></g><defs><linearGradient id="paint0_linear_3_911" x1="451" y1="390.541" x2="64.673" y2="836.535" gradientUnits="userSpaceOnUse"><stop stop-color="#F90" stop-opacity="0"/><stop offset="1" stop-color="#F90"/></linearGradient><linearGradient id="paint1_linear_3_911" x1="949" y1="341.875" x2="1185.41" y2="874.153" gradientUnits="userSpaceOnUse"><stop stop-color="#00F0FF" stop-opacity="0"/><stop offset="1" stop-color="#00B2FF"/></linearGradient></defs></svg>