<svg width="88" height="24" viewBox="0 0 88 24" fill="none" xmlns="http://www.w3.org/2000/svg">
<g id="logo 2" clip-path="url(#clip0_1_1634)">
<g id="Group">
<path id="Vector" d="M8.65762 0.184477C5.14724 0.738323 2.4864 2.61804 1.2201 5.43762C0.306439 7.45161 0.0980604 8.62643 0.0820312 11.7481C0.0820312 14.1313 0.130119 14.702 0.450702 15.8264C1.3323 19.0488 3.09551 21.281 5.83649 22.6572C9.5232 24.4866 16.1272 24.4027 20.6474 22.4558L21.8015 21.9523V16.4306V10.909H16.5119H11.2223V12.3355V13.7621H14.0274H16.8325L16.8004 17.0684L16.7523 20.3747L15.9509 20.6936C14.7808 21.1635 11.7993 21.281 10.4208 20.9117C8.38513 20.3747 6.8303 18.7971 6.12502 16.5481C5.13121 13.3929 5.37165 8.3579 6.62192 5.75651C7.13486 4.69916 8.22484 3.6586 9.23467 3.25581C10.4529 2.76909 12.9695 2.80266 13.9953 3.33972C14.941 3.82644 15.5021 4.5649 15.7585 5.68937L15.9509 6.54532H18.74H21.529L21.4168 5.67259C21.0802 3.05441 19.1407 1.20825 15.8707 0.419443C14.4441 0.0669937 10.2285 -0.0672703 8.65762 0.184477Z" fill="white"/>
<path id="Vector_2" d="M28.8555 12.1677V23.832H31.34H33.8245V12.1677V0.503359H31.34H28.8555V12.1677Z" fill="white"/>
<path id="Vector_3" d="M41.3594 12.1509V23.832H43.8439H46.3284V18.7803V13.7118L48.5404 13.8125C51.1051 13.9131 52.0188 14.1817 52.8843 15.088C53.5896 15.8264 53.9262 16.6992 55.0483 20.7607L55.8658 23.7481L58.3984 23.7985C59.7769 23.8152 60.9149 23.7817 60.9149 23.6978C60.9149 23.1943 58.5907 15.239 58.2701 14.6684C57.5648 13.3929 56.3306 12.5705 54.5033 12.1677C53.9743 12.0502 53.9903 12.0334 55.0964 11.7481C57.3244 11.1439 58.8151 10.053 59.4403 8.57609C59.6005 8.19007 59.6967 7.45161 59.6967 6.54532C59.7127 5.30336 59.6486 4.98448 59.2639 4.1621C58.5106 2.5677 57.1962 1.61105 54.8239 0.956507C53.7499 0.654409 52.9645 0.604059 47.4985 0.553709L41.3594 0.469793V12.1509ZM52.2592 3.62504C54.6956 4.38028 55.4811 7.50196 53.7339 9.44881C52.7721 10.4894 51.7943 10.7747 48.861 10.8754L46.3284 10.9425V7.14951V3.35651H48.861C50.7204 3.35651 51.6341 3.42364 52.2592 3.62504Z" fill="white"/>
<path id="Vector_4" d="M68.4463 11.8488C65.9298 18.0922 63.8299 23.3453 63.7658 23.5132C63.6536 23.8152 63.7819 23.832 66.0901 23.832H68.5425L69.7287 20.6432L70.9309 17.4544H75.8358H80.7567L81.9429 20.6097L83.113 23.7481L85.5655 23.7985C86.8959 23.8152 88.0019 23.8152 88.0019 23.7649C88.0019 23.7313 85.9181 18.495 83.3695 12.1341L78.721 0.587276L75.8678 0.553709L73.0146 0.503359L68.4463 11.8488ZM77.8875 9.68378L79.6347 14.4334H75.8839C73.8161 14.4334 72.133 14.3999 72.133 14.3327C72.133 14.2152 75.6595 4.68238 75.7717 4.4642C75.8999 4.2628 75.7556 3.89357 77.8875 9.68378Z" fill="white"/>
</g>
</g>
<defs>
<clipPath id="clip0_1_1634">
<rect width="88" height="24" fill="white"/>
</clipPath>
</defs>
</svg>
