<svg width="24" height="24" viewBox="0 0 24 24" fill="none" xmlns="http://www.w3.org/2000/svg">
<g id="uil:play">
<path id="Vector" d="M18.54 8.99978L8.88 3.45978C8.35729 3.15794 7.764 2.99982 7.16039 3.00148C6.55679 3.00314 5.96438 3.16451 5.44333 3.46922C4.92228 3.77393 4.49115 4.21111 4.19375 4.73636C3.89634 5.26161 3.74324 5.85621 3.75 6.45978V17.5798C3.75 18.4868 4.11032 19.3567 4.7517 19.9981C5.39307 20.6395 6.26296 20.9998 7.17 20.9998C7.77044 20.9988 8.36009 20.8401 8.88 20.5398L18.54 14.9998C19.0591 14.6994 19.49 14.2678 19.7896 13.7482C20.0892 13.2287 20.2469 12.6395 20.2469 12.0398C20.2469 11.4401 20.0892 10.8509 19.7896 10.3313C19.49 9.81181 19.0591 9.38019 18.54 9.07978V8.99978Z" fill="#00B7FF"/>
</g>
</svg>
